<?xml version="1.0" encoding="UTF-8"?> <svg xmlns="http://www.w3.org/2000/svg" clip-rule="evenodd" fill-rule="evenodd" stroke-linejoin="round" stroke-miterlimit="2" viewBox="0 0 800 480"><path d="m0 0h800v480h-800z" fill="#262626"></path><path d="m543.264 274.066h513.312v40.025h-513.312z" fill="#0071c5" transform="matrix(1 0 0 .799502 -399.92 39.0286)"></path><g fill="#fff" fill-rule="nonzero"><path d="m.117-.143c.025.025.053.045.086.059.033.015.067.023.103.023.047 0 .083-.01.108-.03.025-.019.038-.045.038-.077 0-.017-.003-.031-.009-.043-.006-.011-.014-.021-.025-.03-.011-.008-.023-.015-.037-.022-.015-.007-.03-.014-.047-.021l-.094-.041c-.017-.007-.033-.015-.05-.024s-.032-.021-.045-.034c-.014-.013-.025-.029-.034-.048-.009-.018-.013-.039-.013-.063 0-.025.005-.048.016-.069s.025-.04.045-.056c.019-.015.041-.027.068-.036.026-.009.055-.013.086-.013.041 0 .079.007.114.022.035.016.064.035.088.059l-.044.054c-.021-.019-.045-.035-.07-.046-.026-.011-.055-.016-.088-.016-.04 0-.072.008-.095.025s-.035.041-.035.071c0 .016.004.029.011.04s.016.021.027.029c.011.009.023.016.037.022s.028.012.042.018l.092.04c.02.008.039.017.057.027.017.011.033.023.046.036.012.014.023.03.031.048.007.019.011.04.011.064 0 .026-.005.05-.016.073s-.026.042-.046.059-.044.031-.073.04c-.029.01-.061.015-.097.015-.048 0-.092-.009-.132-.026-.041-.017-.076-.041-.106-.071z" transform="matrix(18 0 0 18 232.663 278.5455)"></path><path d="m.069-.242c0-.04.007-.076.021-.108.014-.031.033-.058.056-.08.022-.022.049-.039.079-.051.029-.011.06-.017.091-.017.035 0 .066.005.093.016.027.012.051.027.07.047s.033.044.043.072.015.059.015.093v.025c-.001.009-.002.016-.003.022h-.38c.001.026.006.049.016.07.009.021.022.038.039.053.016.015.035.026.058.034.022.008.046.012.073.012.029 0 .055-.004.079-.012.023-.008.046-.019.069-.033l.029.054c-.024.015-.051.029-.082.04s-.066.017-.105.017c-.036 0-.07-.006-.101-.018-.032-.011-.06-.028-.083-.05-.024-.021-.043-.048-.056-.079-.014-.031-.021-.067-.021-.107zm.392-.04c0-.049-.013-.086-.038-.112s-.061-.039-.106-.039c-.02 0-.039.003-.057.01-.019.007-.035.016-.05.029s-.027.029-.037.048-.017.04-.02.064z" transform="matrix(18 0 0 18 243.463 278.5455)"></path><path d="m.206-.419h-.137v-.062l.14-.005.011-.136h.068v.136h.239v.067h-.239v.231c0 .022.002.041.006.057.004.017.011.031.02.042s.022.02.038.025c.016.006.036.009.059.009s.044-.002.063-.006.037-.009.054-.016l.018.06c-.022.008-.046.015-.073.021-.027.005-.053.008-.08.008-.035 0-.065-.005-.089-.015-.024-.009-.043-.023-.057-.041-.015-.017-.025-.038-.031-.063-.007-.025-.01-.052-.01-.082z" transform="matrix(18 0 0 18 254.263 278.5455)"></path><path d="m.206-.419h-.137v-.062l.14-.005.011-.136h.068v.136h.239v.067h-.239v.231c0 .022.002.041.006.057.004.017.011.031.02.042s.022.02.038.025c.016.006.036.009.059.009s.044-.002.063-.006.037-.009.054-.016l.018.06c-.022.008-.046.015-.073.021-.027.005-.053.008-.08.008-.035 0-.065-.005-.089-.015-.024-.009-.043-.023-.057-.041-.015-.017-.025-.038-.031-.063-.007-.025-.01-.052-.01-.082z" transform="matrix(18 0 0 18 265.063 278.5455)"></path><path d="m.09-.486h.308v.486h-.082v-.419h-.226zm.258-.1c-.019 0-.035-.006-.047-.017-.013-.011-.019-.027-.019-.046s.006-.035.019-.047c.012-.011.028-.017.047-.017s.034.006.047.017c.013.012.019.028.019.047s-.006.035-.019.046-.028.017-.047.017z" transform="matrix(18 0 0 18 275.863 278.5455)"></path><path d="m.093-.486h.068l.007.083h.004c.025-.027.053-.05.082-.068s.063-.027.101-.027c.058 0 .101.016.128.049.026.033.04.082.04.147v.302h-.082v-.291c0-.046-.009-.08-.026-.103-.017-.022-.046-.033-.086-.033-.015 0-.028.002-.04.005-.013.004-.025.01-.037.017s-.024.016-.037.027-.026.024-.04.039v.339h-.082z" transform="matrix(18 0 0 18 286.663 278.5455)"></path><path d="m.143.081c0 .025.014.046.041.062s.066.024.118.024c.028 0 .053-.003.076-.008.023-.006.042-.014.058-.023s.028-.02.037-.032c.008-.012.012-.024.012-.037 0-.023-.009-.039-.027-.047-.019-.008-.047-.012-.084-.012h-.095c-.014 0-.027 0-.039-.001-.013-.001-.024-.004-.035-.007-.023.013-.039.026-.048.04-.009.013-.014.027-.014.041zm-.071.008c0-.019.007-.038.021-.057.013-.019.033-.036.059-.051v-.004c-.013-.007-.025-.017-.035-.03s-.015-.029-.015-.05c0-.015.005-.031.015-.048.01-.016.024-.03.043-.043v-.004c-.017-.013-.031-.03-.042-.051-.012-.021-.018-.046-.018-.075 0-.027.005-.051.016-.072.01-.021.024-.04.041-.055s.038-.026.061-.035c.023-.008.047-.012.073-.012.027 0 .051.004.072.012h.201v.063h-.13c.011.012.022.027.031.044s.014.037.014.058c0 .026-.005.049-.014.07-.01.021-.023.038-.04.052-.017.015-.037.026-.06.033-.024.008-.048.012-.074.012-.013 0-.026-.002-.04-.005-.015-.003-.029-.007-.042-.013-.025.016-.038.035-.038.056 0 .019.009.033.027.042.017.009.042.014.074.014h.109c.063 0 .109.009.14.026.03.017.045.047.045.088 0 .023-.006.044-.019.065s-.031.039-.054.054-.052.028-.085.037-.071.014-.112.014c-.071 0-.127-.012-.165-.035-.039-.023-.059-.057-.059-.1zm.219-.298c.031 0 .058-.01.08-.031.021-.021.032-.049.032-.084 0-.017-.003-.032-.009-.046s-.014-.026-.024-.036-.022-.018-.035-.024c-.014-.005-.029-.008-.044-.008s-.03.003-.043.008c-.014.006-.026.014-.036.024s-.018.022-.024.036-.009.029-.009.046c0 .035.011.063.033.084s.048.031.079.031z" transform="matrix(18 0 0 18 297.463 278.5455)"></path><path d="m.112-.118c.027.02.057.036.088.048s.069.018.113.018.077-.007.098-.022.032-.033.032-.054c0-.019-.011-.035-.034-.05s-.065-.029-.124-.044c-.025-.006-.049-.013-.071-.022-.023-.009-.042-.019-.059-.031-.017-.011-.03-.024-.04-.038s-.015-.03-.015-.047c0-.019.004-.038.013-.055s.021-.031.039-.044c.016-.012.038-.022.064-.029.025-.007.055-.01.088-.01.037 0 .072.006.107.018.035.013.064.027.088.044l-.04.053c-.021-.015-.045-.028-.071-.037s-.054-.014-.084-.014c-.023 0-.042.002-.057.005-.015.004-.028.009-.037.015-.009.007-.016.014-.02.023s-.006.018-.006.027c0 .02.014.036.041.049s.063.026.107.037c.066.017.115.036.147.057.031.021.047.051.047.088 0 .02-.005.039-.014.056s-.023.033-.041.046c-.019.013-.041.024-.068.032-.027.007-.058.011-.093.011-.048 0-.092-.007-.132-.023-.041-.014-.076-.032-.106-.053z" transform="matrix(18 0 0 18 308.263 278.5455)"></path><path d="m.117-.143c.025.025.053.045.086.059.033.015.067.023.103.023.047 0 .083-.01.108-.03.025-.019.038-.045.038-.077 0-.017-.003-.031-.009-.043-.006-.011-.014-.021-.025-.03-.011-.008-.023-.015-.037-.022-.015-.007-.03-.014-.047-.021l-.094-.041c-.017-.007-.033-.015-.05-.024s-.032-.021-.045-.034c-.014-.013-.025-.029-.034-.048-.009-.018-.013-.039-.013-.063 0-.025.005-.048.016-.069s.025-.04.045-.056c.019-.015.041-.027.068-.036.026-.009.055-.013.086-.013.041 0 .079.007.114.022.035.016.064.035.088.059l-.044.054c-.021-.019-.045-.035-.07-.046-.026-.011-.055-.016-.088-.016-.04 0-.072.008-.095.025s-.035.041-.035.071c0 .016.004.029.011.04s.016.021.027.029c.011.009.023.016.037.022s.028.012.042.018l.092.04c.02.008.039.017.057.027.017.011.033.023.046.036.012.014.023.03.031.048.007.019.011.04.011.064 0 .026-.005.05-.016.073s-.026.042-.046.059-.044.031-.073.04c-.029.01-.061.015-.097.015-.048 0-.092-.009-.132-.026-.041-.017-.076-.041-.106-.071z" transform="matrix(18 0 0 18 329.863 278.5455)"></path><path d="m.084.134c.007.002.014.004.022.005.007.001.015.002.022.002.034 0 .062-.01.083-.029.021-.02.038-.045.05-.075l.015-.036-.227-.487h.083l.119.269c.009.021.019.044.03.069.01.025.02.049.03.072h.004c.009-.023.018-.047.027-.072.008-.024.017-.047.025-.069l.106-.269h.078l-.214.526c-.009.024-.02.046-.032.067s-.026.039-.043.054c-.017.014-.036.026-.057.035-.022.009-.047.013-.074.013-.024 0-.045-.003-.064-.01z" transform="matrix(18 0 0 18 340.663 278.5455)"></path><path d="m.093-.486h.068l.007.083h.004c.025-.027.053-.05.082-.068s.063-.027.101-.027c.058 0 .101.016.128.049.026.033.04.082.04.147v.302h-.082v-.291c0-.046-.009-.08-.026-.103-.017-.022-.046-.033-.086-.033-.015 0-.028.002-.04.005-.013.004-.025.01-.037.017s-.024.016-.037.027-.026.024-.04.039v.339h-.082z" transform="matrix(18 0 0 18 351.463 278.5455)"></path><path d="m.08-.242c0-.041.007-.077.022-.109.014-.031.033-.058.058-.08s.054-.039.087-.05.067-.017.104-.017c.04 0 .075.007.104.021s.053.031.073.05l-.041.053c-.02-.017-.041-.031-.062-.041-.022-.01-.046-.015-.071-.015-.028 0-.054.004-.077.013s-.043.022-.059.039c-.017.017-.03.037-.039.059-.009.023-.014.049-.014.077s.004.053.014.076c.009.023.021.042.038.058.016.017.036.029.059.038s.048.014.076.014c.03 0 .057-.006.083-.018.025-.011.047-.026.068-.043l.036.053c-.027.024-.056.043-.089.056s-.068.02-.104.02c-.038 0-.073-.006-.105-.017-.033-.011-.061-.028-.085-.05-.024-.021-.043-.048-.056-.08-.013-.031-.02-.067-.02-.107z" transform="matrix(18 0 0 18 362.263 278.5455)"></path><path d="m.219-.43c0-.025.008-.046.024-.062.015-.015.034-.023.057-.023s.042.008.058.023c.015.016.023.037.023.062s-.008.046-.023.061c-.016.015-.035.023-.058.023s-.042-.008-.057-.023c-.016-.015-.024-.036-.024-.061zm0 .358c0-.025.008-.046.024-.062.015-.015.034-.023.057-.023s.042.008.058.023c.015.016.023.037.023.062s-.008.046-.023.061c-.016.015-.035.023-.058.023s-.042-.008-.057-.023c-.016-.015-.024-.036-.024-.061z" transform="matrix(18 0 0 18 373.063 278.5455)"></path><path d="m.095-.071h.163v-.515h-.163v-.07h.41v.07h-.163v.515h.163v.071h-.41z" transform="matrix(18 0 0 18 394.663 278.5455)"></path><path d="m.143.081c0 .025.014.046.041.062s.066.024.118.024c.028 0 .053-.003.076-.008.023-.006.042-.014.058-.023s.028-.02.037-.032c.008-.012.012-.024.012-.037 0-.023-.009-.039-.027-.047-.019-.008-.047-.012-.084-.012h-.095c-.014 0-.027 0-.039-.001-.013-.001-.024-.004-.035-.007-.023.013-.039.026-.048.04-.009.013-.014.027-.014.041zm-.071.008c0-.019.007-.038.021-.057.013-.019.033-.036.059-.051v-.004c-.013-.007-.025-.017-.035-.03s-.015-.029-.015-.05c0-.015.005-.031.015-.048.01-.016.024-.03.043-.043v-.004c-.017-.013-.031-.03-.042-.051-.012-.021-.018-.046-.018-.075 0-.027.005-.051.016-.072.01-.021.024-.04.041-.055s.038-.026.061-.035c.023-.008.047-.012.073-.012.027 0 .051.004.072.012h.201v.063h-.13c.011.012.022.027.031.044s.014.037.014.058c0 .026-.005.049-.014.07-.01.021-.023.038-.04.052-.017.015-.037.026-.06.033-.024.008-.048.012-.074.012-.013 0-.026-.002-.04-.005-.015-.003-.029-.007-.042-.013-.025.016-.038.035-.038.056 0 .019.009.033.027.042.017.009.042.014.074.014h.109c.063 0 .109.009.14.026.03.017.045.047.045.088 0 .023-.006.044-.019.065s-.031.039-.054.054-.052.028-.085.037-.071.014-.112.014c-.071 0-.127-.012-.165-.035-.039-.023-.059-.057-.059-.1zm.219-.298c.031 0 .058-.01.08-.031.021-.021.032-.049.032-.084 0-.017-.003-.032-.009-.046s-.014-.026-.024-.036-.022-.018-.035-.024c-.014-.005-.029-.008-.044-.008s-.03.003-.043.008c-.014.006-.026.014-.036.024s-.018.022-.024.036-.009.029-.009.046c0 .035.011.063.033.084s.048.031.079.031z" transform="matrix(18 0 0 18 405.463 278.5455)"></path><path d="m.093-.486h.068l.007.083h.004c.025-.027.053-.05.082-.068s.063-.027.101-.027c.058 0 .101.016.128.049.026.033.04.082.04.147v.302h-.082v-.291c0-.046-.009-.08-.026-.103-.017-.022-.046-.033-.086-.033-.015 0-.028.002-.04.005-.013.004-.025.01-.037.017s-.024.016-.037.027-.026.024-.04.039v.339h-.082z" transform="matrix(18 0 0 18 416.263 278.5455)"></path><path d="m.06-.242c0-.041.007-.077.02-.109.013-.031.03-.058.052-.08s.048-.039.077-.05.059-.017.091-.017.063.006.092.017.054.028.076.05.039.049.053.08c.013.032.019.068.019.109 0 .04-.006.076-.019.107-.014.032-.031.059-.053.08-.022.022-.047.039-.076.05s-.06.017-.092.017-.062-.006-.091-.017-.055-.028-.077-.05c-.022-.021-.039-.048-.052-.08-.013-.031-.02-.067-.02-.107zm.085 0c0 .028.004.053.011.076s.018.042.032.058c.013.017.03.029.049.038s.04.014.063.014.045-.005.064-.014.035-.021.049-.038c.013-.016.024-.035.031-.058s.011-.048.011-.076-.004-.054-.011-.077c-.007-.022-.018-.042-.031-.059-.014-.017-.03-.03-.049-.039s-.041-.013-.064-.013-.044.004-.063.013-.036.022-.049.039c-.014.017-.025.037-.032.059-.007.023-.011.049-.011.077z" transform="matrix(18 0 0 18 427.063 278.5455)"></path><path d="m.146-.486h.068l.007.115h.003c.025-.039.057-.07.094-.093s.078-.034.123-.034c.018 0 .035.001.05.004s.031.009.046.016l-.019.071c-.017-.006-.032-.01-.043-.013-.012-.003-.028-.004-.047-.004-.037 0-.072.011-.105.031-.034.021-.066.057-.095.108v.285h-.082z" transform="matrix(18 0 0 18 437.863 278.5455)"></path><path d="m.069-.242c0-.04.007-.076.021-.108.014-.031.033-.058.056-.08.022-.022.049-.039.079-.051.029-.011.06-.017.091-.017.035 0 .066.005.093.016.027.012.051.027.07.047s.033.044.043.072.015.059.015.093v.025c-.001.009-.002.016-.003.022h-.38c.001.026.006.049.016.07.009.021.022.038.039.053.016.015.035.026.058.034.022.008.046.012.073.012.029 0 .055-.004.079-.012.023-.008.046-.019.069-.033l.029.054c-.024.015-.051.029-.082.04s-.066.017-.105.017c-.036 0-.07-.006-.101-.018-.032-.011-.06-.028-.083-.05-.024-.021-.043-.048-.056-.079-.014-.031-.021-.067-.021-.107zm.392-.04c0-.049-.013-.086-.038-.112s-.061-.039-.106-.039c-.02 0-.039.003-.057.01-.019.007-.035.016-.05.029s-.027.029-.037.048-.017.04-.02.064z" transform="matrix(18 0 0 18 448.663 278.5455)"></path><path d="m.06-.242c0-.039.006-.075.019-.107.012-.031.028-.058.049-.08.02-.022.043-.039.07-.051s.054-.018.083-.018c.03 0 .056.006.079.017s.045.027.068.046l-.003-.09v-.187h.082v.712h-.068l-.007-.064h-.003c-.02.021-.044.039-.071.053-.028.016-.057.023-.087.023-.032 0-.061-.006-.086-.017-.026-.011-.048-.028-.067-.05-.019-.021-.033-.048-.043-.079s-.015-.067-.015-.108zm.085-.001c0 .059.013.104.038.137s.06.049.105.049c.048 0 .094-.024.137-.073v-.242c-.022-.021-.043-.035-.064-.044-.022-.009-.043-.013-.064-.013s-.041.004-.059.013c-.019.009-.035.022-.048.038-.014.017-.025.036-.033.059s-.012.048-.012.076z" transform="matrix(18 0 0 18 459.463 278.5455)"></path><path d="m.117-.143c.025.025.053.045.086.059.033.015.067.023.103.023.047 0 .083-.01.108-.03.025-.019.038-.045.038-.077 0-.017-.003-.031-.009-.043-.006-.011-.014-.021-.025-.03-.011-.008-.023-.015-.037-.022-.015-.007-.03-.014-.047-.021l-.094-.041c-.017-.007-.033-.015-.05-.024s-.032-.021-.045-.034c-.014-.013-.025-.029-.034-.048-.009-.018-.013-.039-.013-.063 0-.025.005-.048.016-.069s.025-.04.045-.056c.019-.015.041-.027.068-.036.026-.009.055-.013.086-.013.041 0 .079.007.114.022.035.016.064.035.088.059l-.044.054c-.021-.019-.045-.035-.07-.046-.026-.011-.055-.016-.088-.016-.04 0-.072.008-.095.025s-.035.041-.035.071c0 .016.004.029.011.04s.016.021.027.029c.011.009.023.016.037.022s.028.012.042.018l.092.04c.02.008.039.017.057.027.017.011.033.023.046.036.012.014.023.03.031.048.007.019.011.04.011.064 0 .026-.005.05-.016.073s-.026.042-.046.059-.044.031-.073.04c-.029.01-.061.015-.097.015-.048 0-.092-.009-.132-.026-.041-.017-.076-.041-.106-.071z" transform="matrix(18 0 0 18 481.063 278.5455)"></path><path d="m.069-.242c0-.04.007-.076.021-.108.014-.031.033-.058.056-.08.022-.022.049-.039.079-.051.029-.011.06-.017.091-.017.035 0 .066.005.093.016.027.012.051.027.07.047s.033.044.043.072.015.059.015.093v.025c-.001.009-.002.016-.003.022h-.38c.001.026.006.049.016.07.009.021.022.038.039.053.016.015.035.026.058.034.022.008.046.012.073.012.029 0 .055-.004.079-.012.023-.008.046-.019.069-.033l.029.054c-.024.015-.051.029-.082.04s-.066.017-.105.017c-.036 0-.07-.006-.101-.018-.032-.011-.06-.028-.083-.05-.024-.021-.043-.048-.056-.079-.014-.031-.021-.067-.021-.107zm.392-.04c0-.049-.013-.086-.038-.112s-.061-.039-.106-.039c-.02 0-.039.003-.057.01-.019.007-.035.016-.05.029s-.027.029-.037.048-.017.04-.02.064z" transform="matrix(18 0 0 18 491.863 278.5455)"></path><path d="m.206-.419h-.137v-.062l.14-.005.011-.136h.068v.136h.239v.067h-.239v.231c0 .022.002.041.006.057.004.017.011.031.02.042s.022.02.038.025c.016.006.036.009.059.009s.044-.002.063-.006.037-.009.054-.016l.018.06c-.022.008-.046.015-.073.021-.027.005-.053.008-.08.008-.035 0-.065-.005-.089-.015-.024-.009-.043-.023-.057-.041-.015-.017-.025-.038-.031-.063-.007-.025-.01-.052-.01-.082z" transform="matrix(18 0 0 18 502.663 278.5455)"></path><path d="m.206-.419h-.137v-.062l.14-.005.011-.136h.068v.136h.239v.067h-.239v.231c0 .022.002.041.006.057.004.017.011.031.02.042s.022.02.038.025c.016.006.036.009.059.009s.044-.002.063-.006.037-.009.054-.016l.018.06c-.022.008-.046.015-.073.021-.027.005-.053.008-.08.008-.035 0-.065-.005-.089-.015-.024-.009-.043-.023-.057-.041-.015-.017-.025-.038-.031-.063-.007-.025-.01-.052-.01-.082z" transform="matrix(18 0 0 18 513.463 278.5455)"></path><path d="m.09-.486h.308v.486h-.082v-.419h-.226zm.258-.1c-.019 0-.035-.006-.047-.017-.013-.011-.019-.027-.019-.046s.006-.035.019-.047c.012-.011.028-.017.047-.017s.034.006.047.017c.013.012.019.028.019.047s-.006.035-.019.046-.028.017-.047.017z" transform="matrix(18 0 0 18 524.263 278.5455)"></path><path d="m.093-.486h.068l.007.083h.004c.025-.027.053-.05.082-.068s.063-.027.101-.027c.058 0 .101.016.128.049.026.033.04.082.04.147v.302h-.082v-.291c0-.046-.009-.08-.026-.103-.017-.022-.046-.033-.086-.033-.015 0-.028.002-.04.005-.013.004-.025.01-.037.017s-.024.016-.037.027-.026.024-.04.039v.339h-.082z" transform="matrix(18 0 0 18 535.063 278.5455)"></path><path d="m.143.081c0 .025.014.046.041.062s.066.024.118.024c.028 0 .053-.003.076-.008.023-.006.042-.014.058-.023s.028-.02.037-.032c.008-.012.012-.024.012-.037 0-.023-.009-.039-.027-.047-.019-.008-.047-.012-.084-.012h-.095c-.014 0-.027 0-.039-.001-.013-.001-.024-.004-.035-.007-.023.013-.039.026-.048.04-.009.013-.014.027-.014.041zm-.071.008c0-.019.007-.038.021-.057.013-.019.033-.036.059-.051v-.004c-.013-.007-.025-.017-.035-.03s-.015-.029-.015-.05c0-.015.005-.031.015-.048.01-.016.024-.03.043-.043v-.004c-.017-.013-.031-.03-.042-.051-.012-.021-.018-.046-.018-.075 0-.027.005-.051.016-.072.01-.021.024-.04.041-.055s.038-.026.061-.035c.023-.008.047-.012.073-.012.027 0 .051.004.072.012h.201v.063h-.13c.011.012.022.027.031.044s.014.037.014.058c0 .026-.005.049-.014.07-.01.021-.023.038-.04.052-.017.015-.037.026-.06.033-.024.008-.048.012-.074.012-.013 0-.026-.002-.04-.005-.015-.003-.029-.007-.042-.013-.025.016-.038.035-.038.056 0 .019.009.033.027.042.017.009.042.014.074.014h.109c.063 0 .109.009.14.026.03.017.045.047.045.088 0 .023-.006.044-.019.065s-.031.039-.054.054-.052.028-.085.037-.071.014-.112.014c-.071 0-.127-.012-.165-.035-.039-.023-.059-.057-.059-.1zm.219-.298c.031 0 .058-.01.08-.031.021-.021.032-.049.032-.084 0-.017-.003-.032-.009-.046s-.014-.026-.024-.036-.022-.018-.035-.024c-.014-.005-.029-.008-.044-.008s-.03.003-.043.008c-.014.006-.026.014-.036.024s-.018.022-.024.036-.009.029-.009.046c0 .035.011.063.033.084s.048.031.079.031z" transform="matrix(18 0 0 18 545.863 278.5455)"></path><path d="m.112-.118c.027.02.057.036.088.048s.069.018.113.018.077-.007.098-.022.032-.033.032-.054c0-.019-.011-.035-.034-.05s-.065-.029-.124-.044c-.025-.006-.049-.013-.071-.022-.023-.009-.042-.019-.059-.031-.017-.011-.03-.024-.04-.038s-.015-.03-.015-.047c0-.019.004-.038.013-.055s.021-.031.039-.044c.016-.012.038-.022.064-.029.025-.007.055-.01.088-.01.037 0 .072.006.107.018.035.013.064.027.088.044l-.04.053c-.021-.015-.045-.028-.071-.037s-.054-.014-.084-.014c-.023 0-.042.002-.057.005-.015.004-.028.009-.037.015-.009.007-.016.014-.02.023s-.006.018-.006.027c0 .02.014.036.041.049s.063.026.107.037c.066.017.115.036.147.057.031.021.047.051.047.088 0 .02-.005.039-.014.056s-.023.033-.041.046c-.019.013-.041.024-.068.032-.027.007-.058.011-.093.011-.048 0-.092-.007-.132-.023-.041-.014-.076-.032-.106-.053z" transform="matrix(18 0 0 18 556.663 278.5455)"></path><path d="m.043-.656h.088l.106.354c.011.039.022.076.031.109s.02.069.032.108h.004c.006-.019.012-.038.017-.056.005-.017.011-.035.016-.052s.01-.035.015-.053.01-.037.015-.056l.105-.354h.085l-.208.656h-.097z" transform="matrix(48 0 0 48 141.28 224.0788)"></path><path d="m.09-.486h.308v.486h-.082v-.419h-.226zm.258-.1c-.019 0-.035-.006-.047-.017-.013-.011-.019-.027-.019-.046s.006-.035.019-.047c.012-.011.028-.017.047-.017s.034.006.047.017c.013.012.019.028.019.047s-.006.035-.019.046-.028.017-.047.017z" transform="matrix(48 0 0 48 170.08 224.0788)"></path><path d="m.112-.118c.027.02.057.036.088.048s.069.018.113.018.077-.007.098-.022.032-.033.032-.054c0-.019-.011-.035-.034-.05s-.065-.029-.124-.044c-.025-.006-.049-.013-.071-.022-.023-.009-.042-.019-.059-.031-.017-.011-.03-.024-.04-.038s-.015-.03-.015-.047c0-.019.004-.038.013-.055s.021-.031.039-.044c.016-.012.038-.022.064-.029.025-.007.055-.01.088-.01.037 0 .072.006.107.018.035.013.064.027.088.044l-.04.053c-.021-.015-.045-.028-.071-.037s-.054-.014-.084-.014c-.023 0-.042.002-.057.005-.015.004-.028.009-.037.015-.009.007-.016.014-.02.023s-.006.018-.006.027c0 .02.014.036.041.049s.063.026.107.037c.066.017.115.036.147.057.031.021.047.051.047.088 0 .02-.005.039-.014.056s-.023.033-.041.046c-.019.013-.041.024-.068.032-.027.007-.058.011-.093.011-.048 0-.092-.007-.132-.023-.041-.014-.076-.032-.106-.053z" transform="matrix(48 0 0 48 198.88 224.0788)"></path><path d="m.505 0h-.067l-.007-.085h-.004c-.025.029-.051.052-.08.07-.029.018-.063.027-.101.027-.059 0-.101-.017-.128-.05s-.041-.081-.041-.146v-.302h.083v.291c0 .046.009.08.026.102.016.023.045.034.086.034.028 0 .053-.007.076-.022.023-.014.048-.037.075-.068v-.337h.082z" transform="matrix(48 0 0 48 227.68 224.0788)"></path><path d="m.081-.126c0-.027.007-.051.02-.072.013-.02.033-.037.062-.052.028-.015.064-.027.109-.036s.098-.017.161-.022c-.001-.017-.003-.032-.008-.047s-.012-.028-.022-.039-.023-.019-.039-.026c-.017-.007-.037-.01-.06-.01-.032 0-.063.006-.092.018-.029.013-.055.026-.078.04l-.032-.056c.012-.008.026-.016.043-.025.016-.008.033-.015.052-.022.018-.007.037-.012.058-.017.021-.004.042-.006.063-.006.067 0 .116.018.149.054.032.037.048.085.048.146v.298h-.067l-.007-.066h-.003c-.027.021-.057.04-.09.055s-.067.023-.102.023c-.023 0-.044-.003-.064-.009-.02-.007-.037-.016-.052-.028-.015-.011-.027-.026-.036-.043s-.013-.036-.013-.058zm.08-.006c0 .014.003.026.009.035.006.01.014.018.024.024.009.007.021.011.034.014s.026.005.04.005c.028 0 .056-.006.083-.019.027-.012.054-.03.082-.053v-.128c-.052.004-.096.01-.13.017-.035.007-.063.016-.084.026-.021.011-.036.022-.045.035s-.013.028-.013.044z" transform="matrix(48 0 0 48 256.48 224.0788)"></path><path d="m.081-.712h.248v.555c0 .036.008.062.026.077.017.016.04.024.069.024.027 0 .057-.008.092-.023l.021.062c-.022.008-.043.015-.062.021-.019.005-.042.008-.069.008-.052 0-.091-.015-.118-.044s-.041-.073-.041-.131v-.482h-.166z" transform="matrix(48 0 0 48 285.28 224.0788)"></path><path d="m.117-.143c.025.025.053.045.086.059.033.015.067.023.103.023.047 0 .083-.01.108-.03.025-.019.038-.045.038-.077 0-.017-.003-.031-.009-.043-.006-.011-.014-.021-.025-.03-.011-.008-.023-.015-.037-.022-.015-.007-.03-.014-.047-.021l-.094-.041c-.017-.007-.033-.015-.05-.024s-.032-.021-.045-.034c-.014-.013-.025-.029-.034-.048-.009-.018-.013-.039-.013-.063 0-.025.005-.048.016-.069s.025-.04.045-.056c.019-.015.041-.027.068-.036.026-.009.055-.013.086-.013.041 0 .079.007.114.022.035.016.064.035.088.059l-.044.054c-.021-.019-.045-.035-.07-.046-.026-.011-.055-.016-.088-.016-.04 0-.072.008-.095.025s-.035.041-.035.071c0 .016.004.029.011.04s.016.021.027.029c.011.009.023.016.037.022s.028.012.042.018l.092.04c.02.008.039.017.057.027.017.011.033.023.046.036.012.014.023.03.031.048.007.019.011.04.011.064 0 .026-.005.05-.016.073s-.026.042-.046.059-.044.031-.073.04c-.029.01-.061.015-.097.015-.048 0-.092-.009-.132-.026-.041-.017-.076-.041-.106-.071z" transform="matrix(48 0 0 48 342.88 224.0788)"></path><path d="m.206-.419h-.137v-.062l.14-.005.011-.136h.068v.136h.239v.067h-.239v.231c0 .022.002.041.006.057.004.017.011.031.02.042s.022.02.038.025c.016.006.036.009.059.009s.044-.002.063-.006.037-.009.054-.016l.018.06c-.022.008-.046.015-.073.021-.027.005-.053.008-.08.008-.035 0-.065-.005-.089-.015-.024-.009-.043-.023-.057-.041-.015-.017-.025-.038-.031-.063-.007-.025-.01-.052-.01-.082z" transform="matrix(48 0 0 48 371.68 224.0788)"></path><path d="m.505 0h-.067l-.007-.085h-.004c-.025.029-.051.052-.08.07-.029.018-.063.027-.101.027-.059 0-.101-.017-.128-.05s-.041-.081-.041-.146v-.302h.083v.291c0 .046.009.08.026.102.016.023.045.034.086.034.028 0 .053-.007.076-.022.023-.014.048-.037.075-.068v-.337h.082z" transform="matrix(48 0 0 48 400.48 224.0788)"></path><path d="m.06-.242c0-.039.006-.075.019-.107.012-.031.028-.058.049-.08.02-.022.043-.039.07-.051s.054-.018.083-.018c.03 0 .056.006.079.017s.045.027.068.046l-.003-.09v-.187h.082v.712h-.068l-.007-.064h-.003c-.02.021-.044.039-.071.053-.028.016-.057.023-.087.023-.032 0-.061-.006-.086-.017-.026-.011-.048-.028-.067-.05-.019-.021-.033-.048-.043-.079s-.015-.067-.015-.108zm.085-.001c0 .059.013.104.038.137s.06.049.105.049c.048 0 .094-.024.137-.073v-.242c-.022-.021-.043-.035-.064-.044-.022-.009-.043-.013-.064-.013s-.041.004-.059.013c-.019.009-.035.022-.048.038-.014.017-.025.036-.033.059s-.012.048-.012.076z" transform="matrix(48 0 0 48 429.28 224.0788)"></path><path d="m.09-.486h.308v.486h-.082v-.419h-.226zm.258-.1c-.019 0-.035-.006-.047-.017-.013-.011-.019-.027-.019-.046s.006-.035.019-.047c.012-.011.028-.017.047-.017s.034.006.047.017c.013.012.019.028.019.047s-.006.035-.019.046-.028.017-.047.017z" transform="matrix(48 0 0 48 458.08 224.0788)"></path><path d="m.06-.242c0-.041.007-.077.02-.109.013-.031.03-.058.052-.08s.048-.039.077-.05.059-.017.091-.017.063.006.092.017.054.028.076.05.039.049.053.08c.013.032.019.068.019.109 0 .04-.006.076-.019.107-.014.032-.031.059-.053.08-.022.022-.047.039-.076.05s-.06.017-.092.017-.062-.006-.091-.017-.055-.028-.077-.05c-.022-.021-.039-.048-.052-.08-.013-.031-.02-.067-.02-.107zm.085 0c0 .028.004.053.011.076s.018.042.032.058c.013.017.03.029.049.038s.04.014.063.014.045-.005.064-.014.035-.021.049-.038c.013-.016.024-.035.031-.058s.011-.048.011-.076-.004-.054-.011-.077c-.007-.022-.018-.042-.031-.059-.014-.017-.03-.03-.049-.039s-.041-.013-.064-.013-.044.004-.063.013-.036.022-.049.039c-.014.017-.025.037-.032.059-.007.023-.011.049-.011.077z" transform="matrix(48 0 0 48 486.88 224.0788)"></path><path d="m.066-.328c0-.053.007-.1.022-.142.014-.042.034-.078.06-.107s.057-.052.093-.068c.036-.015.075-.023.118-.023.04 0 .075.008.105.024s.055.035.074.056l-.047.053c-.017-.018-.037-.033-.058-.044s-.046-.016-.074-.016c-.031 0-.06.006-.085.018-.026.013-.048.03-.066.053s-.032.051-.041.084c-.01.033-.015.069-.015.11s.005.078.015.111c.009.033.023.062.041.085s.04.041.066.054c.025.013.054.019.085.019.03 0 .057-.006.08-.019s.046-.031.067-.054l.048.051c-.026.03-.055.053-.088.07s-.07.025-.112.025c-.041 0-.079-.008-.114-.023s-.066-.038-.091-.067c-.026-.029-.046-.064-.061-.107-.015-.042-.022-.09-.022-.143z" transform="matrix(48 0 0 48 544.48 224.0788)"></path><path d="m.06-.242c0-.041.007-.077.02-.109.013-.031.03-.058.052-.08s.048-.039.077-.05.059-.017.091-.017.063.006.092.017.054.028.076.05.039.049.053.08c.013.032.019.068.019.109 0 .04-.006.076-.019.107-.014.032-.031.059-.053.08-.022.022-.047.039-.076.05s-.06.017-.092.017-.062-.006-.091-.017-.055-.028-.077-.05c-.022-.021-.039-.048-.052-.08-.013-.031-.02-.067-.02-.107zm.085 0c0 .028.004.053.011.076s.018.042.032.058c.013.017.03.029.049.038s.04.014.063.014.045-.005.064-.014.035-.021.049-.038c.013-.016.024-.035.031-.058s.011-.048.011-.076-.004-.054-.011-.077c-.007-.022-.018-.042-.031-.059-.014-.017-.03-.03-.049-.039s-.041-.013-.064-.013-.044.004-.063.013-.036.022-.049.039c-.014.017-.025.037-.032.059-.007.023-.011.049-.011.077z" transform="matrix(48 0 0 48 573.28 224.0788)"></path><path d="m.06-.242c0-.039.006-.075.019-.107.012-.031.028-.058.049-.08.02-.022.043-.039.07-.051s.054-.018.083-.018c.03 0 .056.006.079.017s.045.027.068.046l-.003-.09v-.187h.082v.712h-.068l-.007-.064h-.003c-.02.021-.044.039-.071.053-.028.016-.057.023-.087.023-.032 0-.061-.006-.086-.017-.026-.011-.048-.028-.067-.05-.019-.021-.033-.048-.043-.079s-.015-.067-.015-.108zm.085-.001c0 .059.013.104.038.137s.06.049.105.049c.048 0 .094-.024.137-.073v-.242c-.022-.021-.043-.035-.064-.044-.022-.009-.043-.013-.064-.013s-.041.004-.059.013c-.019.009-.035.022-.048.038-.014.017-.025.036-.033.059s-.012.048-.012.076z" transform="matrix(48 0 0 48 602.08 224.0788)"></path><path d="m.069-.242c0-.04.007-.076.021-.108.014-.031.033-.058.056-.08.022-.022.049-.039.079-.051.029-.011.06-.017.091-.017.035 0 .066.005.093.016.027.012.051.027.07.047s.033.044.043.072.015.059.015.093v.025c-.001.009-.002.016-.003.022h-.38c.001.026.006.049.016.07.009.021.022.038.039.053.016.015.035.026.058.034.022.008.046.012.073.012.029 0 .055-.004.079-.012.023-.008.046-.019.069-.033l.029.054c-.024.015-.051.029-.082.04s-.066.017-.105.017c-.036 0-.07-.006-.101-.018-.032-.011-.06-.028-.083-.05-.024-.021-.043-.048-.056-.079-.014-.031-.021-.067-.021-.107zm.392-.04c0-.049-.013-.086-.038-.112s-.061-.039-.106-.039c-.02 0-.039.003-.057.01-.019.007-.035.016-.05.029s-.027.029-.037.048-.017.04-.02.064z" transform="matrix(48 0 0 48 630.88 224.0788)"></path></g></svg> 